<svg width="420" height="120" viewBox="0 0 420 120" fill="none" xmlns="http://www.w3.org/2000/svg">
  <defs>
    <linearGradient id="bg" x1="0" y1="0" x2="420" y2="120" gradientUnits="userSpaceOnUse">
      <stop stop-color="#FFF7ED"/>
      <stop offset="1" stop-color="#FDE7C7"/>
    </linearGradient>
    <linearGradient id="red" x1="30" y1="18" x2="100" y2="102" gradientUnits="userSpaceOnUse">
      <stop stop-color="#DC2626"/>
      <stop offset="1" stop-color="#7F1D1D"/>
    </linearGradient>
    <linearGradient id="gold" x1="40" y1="22" x2="92" y2="96" gradientUnits="userSpaceOnUse">
      <stop stop-color="#FDE68A"/>
      <stop offset="1" stop-color="#D97706"/>
    </linearGradient>
    <filter id="shadow" x="-20%" y="-20%" width="140%" height="140%">
      <feDropShadow dx="0" dy="8" stdDeviation="8" flood-color="#7F1D1D" flood-opacity="0.18"/>
    </filter>
  </defs>

  <rect width="420" height="120" rx="30" fill="url(#bg)"/>

  <g filter="url(#shadow)">
    <circle cx="62" cy="60" r="42" fill="url(#red)"/>
    <circle cx="62" cy="60" r="33" stroke="#FDE68A" stroke-width="4"/>

    <path d="M62 29V91" stroke="#FDE68A" stroke-width="6" stroke-linecap="round"/>
    <path d="M62 51C48 35 32 36 23 45C32 59 49 64 62 51Z" fill="url(#gold)"/>
    <path d="M62 51C76 35 92 36 101 45C92 59 75 64 62 51Z" fill="url(#gold)"/>

    <circle cx="62" cy="29" r="7" fill="#FDE68A"/>
    <circle cx="31" cy="47" r="7" fill="#FDE68A"/>
    <circle cx="93" cy="47" r="7" fill="#FDE68A"/>

    <path d="M44 88C54 76 70 76 80 88" stroke="#FDE68A" stroke-width="6" stroke-linecap="round"/>
    <circle cx="44" cy="88" r="5" fill="#FDE68A"/>
    <circle cx="80" cy="88" r="5" fill="#FDE68A"/>
  </g>

  <text x="128" y="54" font-family="Microsoft YaHei, PingFang SC, Arial, sans-serif" font-size="34" font-weight="900" fill="#7F1D1D">&#23478;&#33033;&#20146;&#32536;</text>
  <text x="130" y="82" font-family="Microsoft YaHei, PingFang SC, Arial, sans-serif" font-size="15" letter-spacing="1.5" fill="#92400E">FAMILY ROOTS &amp; WARM RELATIONSHIPS</text>

  <path d="M130 94H355" stroke="#D97706" stroke-width="2" stroke-linecap="round" opacity="0.35"/>
</svg>